<svg xmlns="http://www.w3.org/2000/svg" width="346" height="594" viewBox="0 0 346 594">
    <g fill="#0A2463" fill-rule="evenodd" transform="rotate(-120 333.873 352.296)">
        <path d="M112.868 242.833c79.573-4.34 124.38-49.183 127.505-127.6C242.957 50.52 295.268-.461 358.58.004c64.518.48 116.164 50.005 119.227 114.331 3.048 63.8 31.254 104.582 85.452 121.695 11.712 3.704 24.461 5.1 36.823 5.642C668.87 244.647 719.277 296.465 719 364.589c-.248 63.134-86.137 140.162-151.027 140.999-64.471.852-101.741 8.109-103.923-60-1.733-54.035-10.518-175.536-59.828-196.167-80.02-33.497-164.08 23.204-167.174 111.495-2.693 76.603-65.973 130.885-138.227 118.563C41.93 469.775.14 419.678 0 361.024c-.154-61.97 50.269-114.765 112.868-118.19z"/>
        <circle cx="362.5" cy="368.5" r="133.5"/>
    </g>
</svg>
