<svg xmlns="http://www.w3.org/2000/svg" width="107" height="78" viewBox="0 0 107 78">
    <g fill="none" fill-rule="evenodd">
        <path stroke="#FFF" stroke-width=".75" d="M90.913 6.849s9.376-5.084 15.309-.515M83.042 18.922s6.57-9.346 18.359.9M90.722 23.392s8.601-2.12 10.273 9.875"/>
        <path fill="#FFF" d="M1.738.21h98.288c.792 0 1.434.641 1.434 1.433v74.035c0 .793-.642 1.434-1.434 1.434H1.738a1.432 1.432 0 0 1-1.433-1.433V1.641C.305.852.946.21 1.738.21"/>
        <path fill="#BFC5D3" d="M99.899.21H1.865C1.008.21.305.988.305 1.938v4.48H101.46v-4.48c-.001-.95-.703-1.728-1.561-1.728"/>
        <path fill="#FFF" d="M3.204 2.381a.932.932 0 1 1 0 1.864.932.932 0 0 1 0-1.864M6.933 2.381a.932.932 0 1 1 .001 1.864.932.932 0 0 1 0-1.864"/>
        <path fill="#F5F6FA" d="M10.663 2.381a.932.932 0 1 1 0 1.864.932.932 0 0 1 0-1.864"/>
        <path fill="#082265" d="M39.339 20.066h21.35c.589 0 1.067.477 1.067 1.066v21.351c0 .588-.478 1.065-1.066 1.065H39.339a1.067 1.067 0 0 1-1.067-1.067V21.133c0-.589.476-1.066 1.065-1.067h.002z"/>
        <path fill="#FEFEFE" d="M54.47 43.536h-3.656v-8.918c0-.18.025-.165-.161-.165h-2.761c-.104 0-.145-.018-.144-.136.006-1.095.006-2.19 0-3.285 0-.12.036-.129.137-.129h2.798c.108 0 .134-.027.134-.134 0-.908-.011-1.817 0-2.725 0-.773.18-1.536.526-2.228.57-1.114 1.495-1.77 2.696-2.067.689-.17 1.39-.16 2.093-.139.61.02 1.223.053 1.832.11.104.01.142.038.14.152a281.69 281.69 0 0 0 0 2.907c0 .108-.027.134-.133.133h-1.792a2.93 2.93 0 0 0-.716.087c-.55.14-.854.497-.946 1.048a3.782 3.782 0 0 0-.047.63v2.092c0 .105.022.135.133.135h3.248c.11 0 .135.026.119.134a451.45 451.45 0 0 0-.428 3.303c-.013.102-.053.112-.137.112h-2.762c-.198 0-.171-.019-.171.165-.002 2.972-.003 5.945-.002 8.918"/>
        <path fill="#5282F0" d="M37.353 55.834v1.363c0 .153.047.239.204.239.33.006.66-.008.987-.041.358-.052.62-.278.638-.656.033-.674.055-1.353.027-2.03-.018-.44-.3-.674-.746-.655-.309.032-.614.09-.913.173-.152.034-.199.138-.197.294.01.436.002.875.004 1.312h-.004zm0-6.261v3.073c.358-.061.683-.13 1.014-.172a3.895 3.895 0 0 1 1.693.129c.726.229 1.03.804 1.055 1.499.05.99.038 1.985-.035 2.974-.094 1.048-.667 1.585-1.697 1.792-.994.2-1.993.134-2.987.028a6.866 6.866 0 0 1-.782-.12c-.068-.015-.128-.12-.169-.186-.025-.044 0-.114 0-.171v-8.171c0-.254.047-.384.334-.416.506-.066 1.025-.17 1.574-.26zM56.479 55.333c.047-.066.096-.129.139-.196.508-.804 1.02-1.607 1.523-2.414a.34.34 0 0 1 .334-.19c.597.01 1.207 0 1.854 0-.061.106-.102.183-.148.256-.557.881-1.11 1.765-1.673 2.642a.345.345 0 0 0 0 .424c.569.933 1.127 1.872 1.688 2.808.039.064.073.128.12.21a.452.452 0 0 1-.12.036c-.587 0-1.175.011-1.763-.007a.41.41 0 0 1-.274-.187c-.517-.836-1.02-1.686-1.527-2.529a.549.549 0 0 0-.21-.213c-.006.09-.021.18-.021.27 0 .803-.007 1.607 0 2.41 0 .21-.07.268-.271.264a20.04 20.04 0 0 0-1.365 0c-.24.01-.292-.073-.29-.297.007-2.276 0-4.553 0-6.829 0-.554.006-1.109 0-1.664 0-.185.057-.257.247-.283.547-.075 1.09-.178 1.672-.276v5.745l.085.02zM31.913 55.01c.223 0 .447.012.668-.005.067 0 .18-.082.183-.134.025-.326.027-.667-.297-.861a1.015 1.015 0 0 0-1.084 0c-.322.19-.338.527-.315.855 0 .055.112.14.176.145.222.012.446 0 .67 0m2.617 2.207c0 .486.008.94-.008 1.394 0 .06-.11.162-.178.17-.606.078-1.21.17-1.82.197-.48.027-.96 0-1.434-.081-1.163-.216-1.792-.927-1.927-2.226a10.166 10.166 0 0 1 .02-2.15c.138-1.218.716-1.783 1.911-2.004a4.504 4.504 0 0 1 2.04.086c.911.252 1.481.972 1.536 1.97.028.505 0 1.01.015 1.515 0 .202-.112.2-.256.2h-3.08c-.297 0-.309.014-.29.307.031.526.29.784.835.815.827.039 1.656-.017 2.47-.17.047-.012.088-.014.166-.023M43.718 55.717c0 .314-.02.63.007.944a.978.978 0 0 0 .172.477c.206.279.74.366 1.153.225.333-.12.522-.377.529-.787.01-.563.008-1.127 0-1.69 0-.304-.104-.577-.397-.722a1.203 1.203 0 0 0-1.055-.017.67.67 0 0 0-.41.654v.916zm3.808 0c-.03.469-.02.946-.1 1.407-.161.933-.743 1.514-1.658 1.735a4.7 4.7 0 0 1-2.261 0c-.901-.225-1.486-.788-1.645-1.718a8.452 8.452 0 0 1-.015-2.767c.182-1.12.946-1.782 2.098-1.87a7.05 7.05 0 0 1 1.623.046c1.204.19 1.879 1.004 1.926 2.227.012.314 0 .628 0 .942l.032-.002zM50.03 55.722h.016c0 .272-.006.546 0 .818.01.359.119.7.505.793.287.06.583.06.87 0a.596.596 0 0 0 .478-.597c.018-.666.026-1.335 0-2.002-.014-.385-.287-.631-.663-.686-.544-.08-.955.08-1.11.44a.57.57 0 0 0-.051.19l-.046 1.044zm-1.93.012c.032-.47.02-.946.1-1.407.174-.99.805-1.563 1.77-1.775a4.703 4.703 0 0 1 2.066 0c.97.218 1.633.8 1.733 1.792.094.913.094 1.834 0 2.747-.105.993-.771 1.574-1.743 1.792a4.807 4.807 0 0 1-1.995.015c-1.216-.247-1.842-1.026-1.897-2.316-.012-.281 0-.563 0-.843l-.033-.005zM20.948 57.051v-.26c.01-.137-.051-.2-.188-.196-.311.01-.624.014-.936.028-.233.011-.391.111-.411.368-.026.343.076.59.348.617.28.01.562-.018.836-.084.276-.05.427-.208.352-.473h-.001zm1.91 1.875h-1.452c-.052 0-.12-.072-.147-.129a1.119 1.119 0 0 1-.054-.268c-.12.047-.207.08-.294.12a3.697 3.697 0 0 1-1.885.33c-.692-.05-1.281-.486-1.433-1.177a3.392 3.392 0 0 1-.035-1.274c.119-.698.668-1.103 1.454-1.147a37.5 37.5 0 0 1 1.71-.042c.172 0 .23-.052.232-.227.014-.757-.1-.912-.851-.965-.543-.038-1.091-.018-1.637-.024h-.316l.157-1.553a.7.7 0 0 1 .119-.025c.86.016 1.72.027 2.58.052.182.013.36.045.536.094.739.171 1.15.65 1.26 1.39.042.276.065.555.068.835.007 1.275 0 2.551 0 3.823.004.048-.005.097-.011.187zM17.591 52.538c-.055.515-.102.991-.166 1.464-.006.048-.13.11-.202.113a8.8 8.8 0 0 1-.844 0c-.212-.009-.287.065-.286.285.008 1.391 0 2.782 0 4.173v.321c-.106.007-.193.018-.282.018-.438 0-.878-.013-1.314.006-.239.011-.326-.05-.324-.312.015-1.382.008-2.765.006-4.147 0-.339 0-.339-.348-.342h-.629v-1.579c.26 0 .506-.007.752 0 .175.007.228-.066.229-.239-.015-.446-.001-.892.042-1.337.136-.98.656-1.464 1.672-1.545.55-.044 1.105-.009 1.673-.009v1.577h-.563a3.362 3.362 0 0 0-.47.03c-.292.05-.42.19-.433.484-.013.294 0 .562-.007.844 0 .157.073.2.213.196h1.281M28.478 57.216v1.417a.204.204 0 0 1-.128.144c-1.033.228-2.072.359-3.106.04-.9-.275-1.466-.897-1.56-1.829a11.744 11.744 0 0 1-.016-2.444c.135-1.204.955-1.903 2.169-2.056.825-.103 1.63 0 2.437.152a.226.226 0 0 1 .222.229c0 .012-.002.024-.004.036-.008.428 0 .856 0 1.32-.34-.048-.645-.108-.955-.13a10.636 10.636 0 0 0-1.237-.037c-.5.021-.75.297-.76.799a54.23 54.23 0 0 0 0 1.663c0 .586.253.882.837.874.65-.008 1.298-.098 1.947-.153.027-.002.067-.012.154-.025"/>
        <path fill="#BFC5D3" d="M65.726 54.484h2.168c.645 0 1.14-.152 1.484-.456.344-.305.515-.743.515-1.314 0-.546-.172-.984-.515-1.314-.344-.33-.815-.5-1.415-.51h-2.237v3.594zm0 .987v3.583H64.52v-9.15h3.374c1 0 1.785.255 2.353.766.568.511.852 1.188.852 2.031 0 .887-.28 1.572-.836 2.052-.558.48-1.354.72-2.39.716l-2.147.002zM72.557 59.05h1.162v-6.797h-1.162v6.797zm-.094-8.601a.695.695 0 0 1 .173-.478.65.65 0 0 1 .512-.195.66.66 0 0 1 .515.195.685.685 0 0 1 .176.478.66.66 0 0 1-.176.472.674.674 0 0 1-.515.189.663.663 0 0 1-.512-.189.668.668 0 0 1-.173-.472zM77.862 54.736l1.512-2.483h1.357l-2.229 3.362 2.294 3.438h-1.344l-1.57-2.546-1.572 2.546h-1.355l2.293-3.438-2.225-3.362h1.345zM84.52 53.087a1.555 1.555 0 0 0-1.18.511c-.32.343-.517.82-.593 1.434h3.407v-.088c-.033-.59-.193-1.049-.478-1.373a1.461 1.461 0 0 0-1.155-.488v.004zm.145 6.091c-.922 0-1.672-.302-2.25-.907-.58-.605-.869-1.416-.868-2.43v-.214a4.09 4.09 0 0 1 .386-1.808 3.012 3.012 0 0 1 1.075-1.244 2.71 2.71 0 0 1 1.505-.449c.884 0 1.571.291 2.062.873.49.582.735 1.416.735 2.502v.483h-4.6c.017.67.213 1.212.588 1.624.363.41.888.636 1.433.62a2.02 2.02 0 0 0 1.043-.252c.29-.172.544-.398.748-.666l.711.553c-.573.877-1.429 1.316-2.568 1.316zM88.764 59.053h1.162V49.4h-1.162z"/>
    </g>
</svg>
