<svg xmlns="http://www.w3.org/2000/svg" width="145" height="82" viewBox="0 0 145 82">
    <g fill="none" fill-rule="evenodd">
        <path stroke="#FFF" stroke-width=".75" d="M6 63s-4.71-1.603-5-5M119 1.846S126.386-.681 130 3M103 24.062s6.442-9.736 18 .938M145 21s-30.66 5.191-37 9M131 23s4.872 1.756 5 5M122 26s7.885 1.684 9 7M112 28.144s9.21-2.116 11 9.856"/>
        <path fill="#FFF" d="M21.431 5h98.138c.79 0 1.431.643 1.431 1.435v74.13c0 .792-.64 1.435-1.431 1.435H21.43c-.79 0-1.431-.643-1.431-1.435V6.435C20 5.643 20.64 5 21.431 5"/>
        <path fill="#BFC5D3" d="M119.441 5H21.558C20.7 5 20 5.752 20 6.67V11h101V6.67c-.001-.918-.702-1.67-1.559-1.67"/>
        <path fill="#FFF" d="M24 8a1 1 0 1 1 0 2 1 1 0 0 1 0-2M27 8a1 1 0 1 1 0 2 1 1 0 0 1 0-2"/>
        <path fill="#F5F6FA" d="M31 8a1 1 0 1 1 0 2 1 1 0 0 1 0-2"/>
        <path fill="#082265" d="M61.47 25.898c.431-1.103.93-2.172 1.668-3.108 1.667-2.1 3.812-3.347 6.46-3.696.154-.02.309-.034.463-.052a.922.922 0 0 1 .26-.017h.788c.11-.012.223.026.33-.025h.05c.257.12.538.09.806.136 3.133.547 5.507 2.208 7.054 5.02 2.634 4.782 5.375 9.505 8.07 14.254 3.776 6.646 7.574 13.268 11.307 19.938a9.826 9.826 0 0 1 1.253 5.49c-.267 4.493-3.685 8.322-8.056 9.026-4.2.676-8.03-1.195-10.204-5.008-3.56-6.243-7.114-12.488-10.663-18.735-.062-.106-.14-.203-.21-.305-.247-.274-.37-.621-.549-.937-1.347-2.39-2.703-4.776-4.068-7.156-1.323-2.319-2.669-4.625-3.973-6.955a9.956 9.956 0 0 1-1.203-3.865 10.11 10.11 0 0 1 .33-3.79c.038-.068.05-.147.086-.215"/>
        <path fill="#5282F0" d="M61.542 25.795a10.142 10.142 0 0 0 .751 4.99c.364.88.86 1.685 1.32 2.511 2.238 4.018 4.479 10.034 6.722 14.05.211.378.412.76.617 1.14a.225.225 0 0 1 .047.16l-1.72 3.044c-2.686 4.785-7.123 11.358-9.809 16.144-.032.057-.069.11-.103.165-.072.008-.083-.048-.096-.1.024-.357.156-.688.229-1.034.597-3.038.078-5.821-1.807-8.265-1.582-2.047-4.678-4.2-7.186-4.55a8.723 8.723 0 0 0-5.43.992 8.674 8.674 0 0 0-2.071 1.53c-.269.268-.566.505-.803.81-.048.061-.108.129-.202.07a.318.318 0 0 1 .055-.21c1.357-2.285 4.35-6.42 5.649-8.747 4.34-7.786 9.68-16.576 14.02-24.368l.073-.127c-.057.663-.195 1.221-.256 1.795z"/>
        <path fill="#082265" d="M43.376 56.575c1.554-1.761 3.442-2.973 5.771-3.396 3.13-.562 5.938.206 8.38 2.227 1.71 1.413 2.77 3.242 3.243 5.411.389 1.782.269 3.54-.242 5.28-.017.056-.028.115-.042.172-.017.16-.13.295-.13.462-.97 1.97-2.252 3.687-4.15 4.87-1.868 1.165-3.921 1.533-6.09 1.357a9.596 9.596 0 0 1-5.568-2.292c-1.917-1.63-3.043-3.715-3.427-6.195-.391-2.525.176-4.843 1.554-6.976l.57-.86c.05.003.1-.02.131-.06z"/>
    </g>
</svg>
