<svg xmlns="http://www.w3.org/2000/svg" width="415" height="678" viewBox="0 0 415 678">
    <g fill="#5585ED" fill-rule="evenodd" transform="scale(-1 1) rotate(-75 127.458 615.184)">
        <path d="M108.793 245.205c76.7-4.383 119.888-49.664 122.9-128.846C234.185 51.012 284.607-.466 345.633.003c62.188.485 111.97 50.493 114.922 115.448 2.938 64.423 30.125 105.603 82.366 122.882 11.29 3.741 23.578 5.15 35.494 5.698 66.305 3.005 114.892 55.329 114.624 124.119-.239 63.75-98.1 128.489-160.647 129.334-62.143.86-82.994 21.229-85.097-47.545-1.67-54.562-10.14-177.25-57.668-198.082-77.132-33.824-158.156 23.43-161.138 112.583-2.595 77.351-52.505 147.628-122.15 135.185C51.502 489.826.135 423.776 0 364.55c-.149-62.576 48.454-115.886 108.793-119.345z"/>
        <ellipse cx="326.106" cy="395.829" rx="157.694" ry="165.062"/>
    </g>
</svg>
