<svg xmlns="http://www.w3.org/2000/svg" width="360" height="730" viewBox="0 0 360 730">
    <g fill="#5585ED" fill-rule="evenodd" transform="rotate(105 187.52 229.18)">
        <path d="M125.093 267.908c87.826-4.783 137.281-54.205 140.73-140.63C268.677 55.953 326.414-.234 396.293.278c71.21.53 128.213 55.111 131.594 126.008 3.365 70.315 34.496 115.262 94.316 134.122 12.928 4.083 26.999 5.62 40.643 6.218 75.924 3.28 131.561 60.39 131.254 135.472-.273 69.58-60.333 128.467-131.954 129.39-71.16.94-129.767-56.512-132.175-131.577-1.913-59.553-28.877-102.005-83.302-124.743-88.321-36.918-181.1 25.574-184.516 122.88-2.971 84.427-72.816 144.253-152.565 130.672C46.795 518.027.67 462.813.517 398.17c-.171-68.3 55.482-126.485 124.576-130.26z"/>
        <circle cx="400.149" cy="407.198" r="147.496"/>
    </g>
</svg>
