<svg xmlns="http://www.w3.org/2000/svg" xmlns:xlink="http://www.w3.org/1999/xlink" width="148" height="148" viewBox="0 0 148 148">
    <defs>
        <path id="a" d="M0 0h183v123H0z"/>
    </defs>
    <g fill="none" fill-rule="evenodd" transform="rotate(-135 79.042 86.577)">
        <mask id="b" fill="#fff">
            <use xlink:href="#a"/>
        </mask>
        <path fill="#EEF2FD" d="M0 92.129c-.04-15.815 12.794-29.287 28.727-30.161C48.98 60.86 60.384 49.417 61.18 29.406 61.837 12.892 75.152-.118 91.266.001c16.42.122 29.566 12.76 30.345 29.176.776 16.28 7.955 26.687 21.75 31.054 2.98.946 6.225 1.302 9.372 1.44 17.508.76 30.338 13.983 30.267 31.367-.063 16.111-13.913 29.746-30.429 29.96-16.41.217-29.924-13.085-30.48-30.466-.44-13.789-6.658-23.618-19.209-28.883C82.516 55.1 61.121 69.57 60.333 92.1c-.685 19.548-16.791 33.4-35.181 30.256C10.672 119.88.036 107.097 0 92.129" mask="url(#b)"/>
    </g>
</svg>
