<svg xmlns="http://www.w3.org/2000/svg" width="102" height="78" viewBox="0 0 102 78">
    <g fill="none" fill-rule="evenodd">
        <path stroke="#FFF" stroke-width=".75" d="M83 19.062s6.8-9.736 19 .938"/>
        <path fill="#FFF" d="M1.445 0h99.11A1.45 1.45 0 0 1 102 1.454v75.092A1.45 1.45 0 0 1 100.555 78H1.445A1.45 1.45 0 0 1 0 76.546V1.454A1.45 1.45 0 0 1 1.445 0"/>
        <path fill="#BFC5D3" d="M100.426 0H1.573C.708 0 0 .752 0 1.67V6h102V1.67c-.001-.918-.71-1.67-1.574-1.67"/>
        <path fill="#FFF" d="M3 2a1 1 0 1 1 0 2 1 1 0 0 1 0-2M7 2a1 1 0 1 1 0 2 1 1 0 0 1 0-2"/>
        <path fill="#F5F6FA" d="M10 2a1 1 0 1 1 0 2 1 1 0 0 1 0-2"/>
        <path fill="#082265" d="M40.007 55.896c-.056-.631.24-1.207.515-1.79 4.905-10.634 9.812-21.268 14.722-31.9.893-1.934 2.461-2.662 4.07-1.922 1.61.74 2.144 2.478 1.266 4.387a21074.33 21074.33 0 0 1-14.783 32.047c-.84 1.827-2.099 2.557-3.587 2.19-1.333-.327-2.227-1.531-2.203-3.012M37.409 26c.852.011 1.76.636 2.3 1.838.561 1.242.283 2.368-.598 3.3-2.387 2.538-4.808 5.038-7.218 7.55-1.766 1.84-1.769 1.838.05 3.727 2.341 2.43 4.7 4.846 7.013 7.301 1.054 1.118 1.411 2.443.525 3.852-.771 1.231-1.889 1.658-3.28 1.32-.653-.159-1.104-.608-1.55-1.07a6946.905 6946.905 0 0 1-10.473-10.882c-1.57-1.644-1.57-3.184 0-4.834 3.515-3.68 7.06-7.33 10.583-11.002.624-.638 1.312-1.094 2.648-1.1M63.932 26.002c.909-.033 1.618.373 2.241 1.02 3.602 3.747 7.228 7.47 10.809 11.239 1.377 1.45 1.349 3.01-.035 4.456a1807.605 1807.605 0 0 1-10.822 11.224c-1.316 1.352-3.017 1.4-4.206.196-1.262-1.279-1.237-3.022.152-4.487 2.58-2.723 5.168-5.442 7.822-8.087.823-.821.932-1.28.038-2.163-2.703-2.67-5.305-5.45-7.94-8.2-.944-.983-1.257-2.127-.677-3.431.513-1.146 1.417-1.704 2.618-1.767"/>
    </g>
</svg>
