<svg xmlns="http://www.w3.org/2000/svg" width="22" height="13" viewBox="0 0 22 13">
    <g fill="none" fill-rule="evenodd">
        <path fill="#B8242B" d="M0 13h22v-1H0z"/>
        <path fill="#FFFFFE" d="M0 12h22v-1H0z"/>
        <path fill="#B8242B" d="M0 11h22v-1H0z"/>
        <path fill="#FFFFFE" d="M0 10h22V9H0z"/>
        <path fill="#B8242B" d="M0 9h22V8H0z"/>
        <path fill="#FFFFFE" d="M0 8h22V7H0z"/>
        <path fill="#B8242B" d="M0 7h22V6H0z"/>
        <path fill="#FFFFFE" d="M0 6h22V5H0z"/>
        <path fill="#B8242B" d="M0 5h22V4H0z"/>
        <path fill="#FFFFFE" d="M0 4h22V3H0z"/>
        <path fill="#B8242B" d="M0 3h22V2H0z"/>
        <path fill="#FFFFFE" d="M0 2h22V1H0z"/>
        <path fill="#B8242B" d="M0 1h22V0H0z"/>
        <path fill="#272D4C" d="M0 7h10V0H0z"/>
        <path fill="#FFFFFE" d="M1.498 1l.12.383H2l-.31.236.118.381-.31-.236-.31.236.122-.381L1 1.383h.379L1.499 1M1.498 2l.12.382H2l-.31.234.118.384-.31-.237-.31.237.122-.384L1 2.382h.379L1.499 2M1.498 3l.12.38H2l-.31.236.118.384-.31-.237-.31.237.122-.384L1 3.381h.379L1.499 3M1.498 5l.12.383H2l-.31.235.118.382-.31-.236-.31.236.122-.382L1 5.383h.379L1.499 5"/>
        <path fill="#FFFFFE" d="M1.498 5l.12.384H2l-.31.234.118.382-.31-.236-.31.236.122-.382L1 5.384h.379L1.499 5M1.5 1l.115.383H2l-.309.237.116.38-.307-.235L1.193 2l.116-.38L1 1.383h.384L1.5 1M1.5 3l.115.381H2l-.309.237.116.382-.307-.234L1.193 4l.116-.382L1 3.381h.384L1.5 3M1.5 4l.115.382H2l-.309.235.116.383-.307-.237L1.193 5l.116-.383L1 4.382h.384L1.5 4"/>
        <path fill="#FFFFFE" d="M1.5 5l.115.382H2l-.309.237.116.381-.307-.237L1.193 6l.116-.381L1 5.382h.384L1.5 5M3.498 1l.12.383H4l-.31.236.12.381-.312-.236L3.192 2l.118-.381L3 1.383h.38L3.499 1M3.498 2l.12.382H4l-.31.234.12.384-.312-.237L3.192 3l.118-.384L3 2.382h.38L3.499 2M3.498 3l.12.38H4l-.31.236.12.384-.312-.237L3.192 4l.118-.384L3 3.381h.38L3.499 3M3.498 5l.12.383H4l-.31.235.12.382-.312-.236L3.192 6l.118-.382L3 5.383h.38L3.499 5"/>
        <path fill="#FFFFFE" d="M3.498 5l.12.384H4l-.31.234.12.382-.312-.236L3.192 6l.118-.382L3 5.384h.38L3.499 5M3.5 1l.116.383H4l-.31.237.118.38-.309-.235L3.192 2l.119-.38L3 1.383h.382L3.499 1M3.5 3l.116.381H4l-.31.237.118.382-.309-.234L3.192 4l.119-.382L3 3.381h.382L3.499 3M3.5 4l.116.382H4l-.31.235.118.383-.309-.237L3.192 5l.119-.383L3 4.382h.382L3.499 4"/>
        <path fill="#FFFFFE" d="M3.5 5l.116.382H4l-.31.237.118.381-.309-.237L3.192 6l.119-.381L3 5.382h.382L3.499 5M4.5 1l.12.383H5l-.31.236.122.381-.312-.236L4.19 2l.117-.381L4 1.383h.382L4.5 1M4.5 2l.12.382H5l-.31.234.122.384-.312-.237L4.19 3l.117-.384L4 2.382h.382L4.5 2M4.5 3l.12.38H5l-.31.236.122.384-.312-.237L4.19 4l.117-.384L4 3.381h.382L4.5 3M4.5 5l.12.383H5l-.31.235.122.382-.312-.236L4.19 6l.117-.382L4 5.383h.382L4.5 5"/>
        <path fill="#FFFFFE" d="M4.5 5l.12.384H5l-.31.234.122.382-.312-.236L4.19 6l.117-.382L4 5.384h.382L4.5 5M5.5 1l.119.383H6l-.308.237.115.38-.306-.235L5.193 2l.115-.38L5 1.383h.381L5.501 1M5.5 3l.119.381H6l-.308.237.115.382-.306-.234L5.193 4l.115-.382L5 3.381h.381L5.501 3M5.5 4l.119.382H6l-.308.235.115.383-.306-.237L5.193 5l.115-.383L5 4.382h.381L5.501 4M5.5 5l.119.382H6l-.308.237.115.381-.306-.237L5.193 6l.115-.381L5 5.382h.381L5.501 5M6.5 1l.119.383H7l-.308.236.12.381-.313-.236L6.193 2l.115-.381L6 1.383h.381L6.5 1M6.5 2l.119.382H7l-.308.234.12.384-.313-.237L6.193 3l.115-.384L6 2.382h.381L6.5 2M6.5 3l.119.38H7l-.308.236.12.384-.313-.237L6.193 4l.115-.384L6 3.381h.381L6.5 3M6.5 5l.119.383H7l-.308.235.12.382-.313-.236L6.193 6l.115-.382L6 5.383h.381L6.5 5"/>
        <path fill="#FFFFFE" d="M6.5 5l.119.384H7l-.308.234.12.382-.313-.236L6.193 6l.115-.382L6 5.384h.381L6.5 5M6.498 1l.118.383H7l-.31.237.118.38-.31-.235L6.19 2l.12-.38L6 1.383h.383L6.498 1M6.498 3l.118.381H7l-.31.237.118.382-.31-.234L6.19 4l.12-.382L6 3.381h.383L6.498 3M6.498 4l.118.382H7l-.31.235.118.383-.31-.237L6.19 5l.12-.383L6 4.382h.383L6.498 4"/>
        <path fill="#FFFFFE" d="M6.498 5l.118.382H7l-.31.237.118.381-.31-.237L6.19 6l.12-.381L6 5.382h.383L6.498 5M7.5 1l.119.383H8l-.308.236.115.381-.308-.236L7.193 2l.115-.381L7 1.383h.381L7.5 1M7.5 2l.119.382H8l-.308.234.115.384-.308-.237L7.193 3l.115-.384L7 2.382h.381L7.5 2M7.5 3l.119.38H8l-.308.236.115.384-.308-.237L7.193 4l.115-.384L7 3.381h.381L7.5 3M7.5 5l.119.383H8l-.308.235.115.382-.308-.236L7.193 6l.115-.382L7 5.383h.381L7.5 5"/>
        <path fill="#FFFFFE" d="M7.5 5l.119.384H8l-.308.234.115.382-.308-.236L7.193 6l.115-.382L7 5.384h.381L7.5 5M8.5 1l.116.383H9l-.307.237.114.38-.307-.235L8.187 2l.12-.38L8 1.383h.38L8.5 1M8.5 3l.116.381H9l-.307.237.114.382-.307-.234L8.187 4l.12-.382L8 3.381h.38L8.5 3M8.5 4l.116.382H9l-.307.235.114.383-.307-.237L8.187 5l.12-.383L8 4.382h.38L8.5 4M8.5 5l.116.382H9l-.307.237.114.381-.307-.237L8.187 6l.12-.381L8 5.382h.38L8.5 5"/>
        <path fill="#FFFFFE" d="M8.5 1l.12.383H9l-.308.236.12.381-.313-.236L8.193 2l.115-.381L8 1.383h.381L8.5 1M8.5 2l.12.382H9l-.308.234.12.384-.313-.237L8.193 3l.115-.384L8 2.382h.381L8.5 2M8.5 3l.12.38H9l-.308.236.12.384-.313-.237L8.193 4l.115-.384L8 3.381h.381L8.5 3M8.5 5l.12.383H9l-.308.235.12.382-.313-.236L8.193 6l.115-.382L8 5.383h.381L8.5 5"/>
        <path fill="#FFFFFE" d="M8.5 5l.12.384H9l-.308.234.12.382-.313-.236L8.193 6l.115-.382L8 5.384h.381L8.5 5"/>
    </g>
</svg>
